<?xml version="1.0" encoding="UTF-8"?>
<svg id="Laag_2" data-name="Laag 2" xmlns="http://www.w3.org/2000/svg" xmlns:xlink="http://www.w3.org/1999/xlink" viewBox="0 0 218.4 36.79">
  <defs>
    <style>
      .cls-1 {
        fill: url(#Naamloos_verloop_54-10);
      }

      .cls-1, .cls-2, .cls-3, .cls-4, .cls-5, .cls-6, .cls-7, .cls-8, .cls-9, .cls-10, .cls-11, .cls-12, .cls-13, .cls-14, .cls-15, .cls-16, .cls-17 {
        stroke-width: 0px;
      }

      .cls-2 {
        fill: url(#Naamloos_verloop_54);
      }

      .cls-3 {
        fill: url(#Naamloos_verloop_23);
      }

      .cls-4 {
        fill: url(#Naamloos_verloop_54-6);
      }

      .cls-5 {
        fill: url(#Naamloos_verloop_54-7);
      }

      .cls-6 {
        fill: url(#Naamloos_verloop_54-5);
      }

      .cls-7 {
        fill: url(#Naamloos_verloop_54-2);
      }

      .cls-8 {
        fill: url(#Naamloos_verloop_54-3);
      }

      .cls-9 {
        fill: url(#Naamloos_verloop_54-8);
      }

      .cls-10 {
        fill: url(#Naamloos_verloop_54-4);
      }

      .cls-11 {
        fill: url(#Naamloos_verloop_54-9);
      }

      .cls-12 {
        fill: url(#Naamloos_verloop_23-4);
      }

      .cls-13 {
        fill: url(#Naamloos_verloop_23-2);
      }

      .cls-14 {
        fill: url(#Naamloos_verloop_23-6);
      }

      .cls-15 {
        fill: url(#Naamloos_verloop_23-3);
      }

      .cls-16 {
        fill: url(#Naamloos_verloop_23-5);
      }

      .cls-17 {
        fill: #fff;
      }
    </style>
    <linearGradient id="Naamloos_verloop_23" data-name="Naamloos verloop 23" x1="14.29" y1="33.75" x2="14.29" y2="6.22" gradientUnits="userSpaceOnUse">
      <stop offset="0" stop-color="#e5e5e5"/>
      <stop offset=".29" stop-color="#d9d1d1"/>
      <stop offset=".33" stop-color="#fff"/>
      <stop offset=".65" stop-color="#909092"/>
      <stop offset=".82" stop-color="#fff"/>
      <stop offset=".98" stop-color="#e5e5e5"/>
    </linearGradient>
    <linearGradient id="Naamloos_verloop_23-2" data-name="Naamloos verloop 23" x1="17.1" y1="35.96" x2="11.47" y2="4.01" xlink:href="#Naamloos_verloop_23"/>
    <linearGradient id="Naamloos_verloop_23-3" data-name="Naamloos verloop 23" x1="41.63" x2="41.63" y2="6.22" xlink:href="#Naamloos_verloop_23"/>
    <linearGradient id="Naamloos_verloop_23-4" data-name="Naamloos verloop 23" x1="43.99" y1="35.16" x2="38.79" y2="5.65" xlink:href="#Naamloos_verloop_23"/>
    <linearGradient id="Naamloos_verloop_23-5" data-name="Naamloos verloop 23" x1="65.09" y1="33.7" x2="65.09" y2="6.22" xlink:href="#Naamloos_verloop_23"/>
    <linearGradient id="Naamloos_verloop_23-6" data-name="Naamloos verloop 23" x1="67.8" y1="35.31" x2="62.39" y2="4.62" xlink:href="#Naamloos_verloop_23"/>
    <linearGradient id="Naamloos_verloop_54" data-name="Naamloos verloop 54" x1="93.8" y1="19.4" x2="93.8" y2="6.27" gradientUnits="userSpaceOnUse">
      <stop offset="0" stop-color="#e5e5e5"/>
      <stop offset=".21" stop-color="#f3f3f3"/>
      <stop offset=".33" stop-color="#9f9ea1"/>
      <stop offset=".65" stop-color="#dddcdd"/>
      <stop offset=".82" stop-color="#fff"/>
      <stop offset=".98" stop-color="#e5e5e5"/>
    </linearGradient>
    <linearGradient id="Naamloos_verloop_54-2" data-name="Naamloos verloop 54" x1="113.47" y1="19.35" x2="113.47" y2="6.27" xlink:href="#Naamloos_verloop_54"/>
    <linearGradient id="Naamloos_verloop_54-3" data-name="Naamloos verloop 54" x1="129.3" y1="19.35" x2="129.3" y2="0" xlink:href="#Naamloos_verloop_54"/>
    <linearGradient id="Naamloos_verloop_54-4" data-name="Naamloos verloop 54" x1="140.91" y1="19.35" x2="140.91" y2="6.27" xlink:href="#Naamloos_verloop_54"/>
    <linearGradient id="Naamloos_verloop_54-5" data-name="Naamloos verloop 54" x1="140.88" y1="3.6" x2="140.88" y2=".99" xlink:href="#Naamloos_verloop_54"/>
    <linearGradient id="Naamloos_verloop_54-6" data-name="Naamloos verloop 54" x1="152.53" y1="19.31" x2="152.53" y2="6.18" xlink:href="#Naamloos_verloop_54"/>
    <linearGradient id="Naamloos_verloop_54-7" data-name="Naamloos verloop 54" x1="168.98" y1="19.35" x2="168.98" y2="1.04" xlink:href="#Naamloos_verloop_54"/>
    <linearGradient id="Naamloos_verloop_54-8" data-name="Naamloos verloop 54" x1="185.56" y1="19.4" x2="185.56" y2="6.27" xlink:href="#Naamloos_verloop_54"/>
    <linearGradient id="Naamloos_verloop_54-9" data-name="Naamloos verloop 54" x1="201.41" y1="19.35" x2="201.41" y2="6.27" xlink:href="#Naamloos_verloop_54"/>
    <linearGradient id="Naamloos_verloop_54-10" data-name="Naamloos verloop 54" x1="214.38" y1="19.35" x2="214.38" y2="2.63" xlink:href="#Naamloos_verloop_54"/>
  </defs>
  <g id="Laag_1-2" data-name="Laag 1">
    <g>
      <g>
        <g>
          <path class="cls-3" d="m22.35,6.5l-.86,2.27-.73,1.86-6.5,16.58L7.86,10.63l-.73-1.86-.86-2.27-.09-.27H.23v27.53h4.09V11.95c.18.5.36,1.04.59,1.64.5,1.32,1.09,2.91,1.77,4.77.68,1.82,1.54,4.09,2.59,6.77,1.04,2.68,2.13,5.45,3.32,8.31l.14.27h3.09l.09-.27,8.36-21.62v21.94h4.09V6.22h-5.91l-.09.27Z"/>
          <path class="cls-13" d="m28.34,33.98h-4.09l-.23-.23V13.03l-7.92,20.49-.09.26-.22.16h-3.09l-.2-.13-.14-.27c-1.2-2.9-2.3-5.72-3.32-8.33-.89-2.28-1.76-4.56-2.59-6.77-.68-1.86-1.27-3.45-1.77-4.77-.05-.14-.1-.27-.15-.4v20.49l-.23.23H.23l-.23-.23V6.22l.23-.23h5.95l.22.16.09.27,1.59,4.12,6.19,16.04,7.01-17.9.95-2.53.22-.16h5.91l.23.23v27.53l-.23.23Zm-3.86-.45h3.63V6.45h-5.51l-.04.13-1.59,4.14-6.5,16.58h-.42S6.92,8.85,6.92,8.85l-.91-2.4H.45v27.07h3.63V11.95l.44-.08c.06.17.13.35.19.54.12.34.25.71.4,1.09.5,1.32,1.09,2.91,1.77,4.77.83,2.21,1.7,4.49,2.59,6.76,1.02,2.61,2.13,5.43,3.31,8.31l.07.13h2.78l.04-.12,8.36-21.63.44.08v21.71Z"/>
        </g>
        <g>
          <path class="cls-15" d="m49.65,7.81l-.91-.77c-.59-.5-1.36-.77-2.13-.82h-9.58c-.77.05-1.54.32-2.13.86l-.91.77c-.68.55-1.09,1.36-1.09,2.23v1.95h4.09v-1.14c0-.18,0-.41.05-.59,0-.05.09-.09.23-.23.27-.23.36-.23.36-.23.23-.05.5-.05.73-.05h6.86c.23,0,.5,0,.73.05.14.09.23.14.36.23.23.18.27.23.27.23.05.18.05.41.05.59v3.36c0,.32,0,.68-.09,1-.14.23-.27.41-.45.59l-12.67,11.49c-.55.45-.68.68-.73.82-.09.36-.14.73-.14,1.09v4.5h18.17v-3.59h-14.04c0-.36.05-.45.09-.5s.09-.18.55-.59l12.58-11.36c.36-.23.59-.59.73-1,.09-.41.14-.86.14-1.27v-5.36c0-.86-.41-1.73-1.09-2.27Z"/>
          <path class="cls-12" d="m50.69,33.98h-18.17l-.23-.23v-4.5c0-.38.05-.76.14-1.14.06-.18.2-.44.8-.94l12.67-11.49c.15-.15.27-.3.4-.51.07-.28.07-.61.07-.91v-3.36c0-.15,0-.33-.02-.47-.04-.03-.1-.09-.21-.17-.05-.03-.1-.06-.16-.1-.05-.03-.09-.06-.15-.09-.2-.03-.44-.03-.64-.03h-6.86c-.21,0-.48,0-.68.04,0,0-.08.03-.26.18-.05.05-.1.09-.14.13,0,0-.01.01-.02.02-.03.15-.03.34-.03.5v1.14l-.23.23h-4.09l-.23-.23v-1.95c0-.93.43-1.81,1.18-2.4l.9-.77c.58-.54,1.39-.87,2.27-.92h9.6c.87.05,1.68.36,2.28.87l.91.77c.73.59,1.17,1.5,1.17,2.45v5.36c0,.44-.05.91-.14,1.32-.18.53-.45.91-.83,1.14l-12.55,11.33c-.33.3-.43.44-.48.5-.03.04-.04.06-.06.08h0s0,.03-.02.11h13.8l.23.23v3.59l-.23.23Zm-17.94-.45h17.72v-3.13h-13.81l-.23-.23c0-.37.04-.54.16-.66.07-.1.18-.26.55-.6l12.58-11.36c.32-.2.53-.5.66-.9.08-.36.13-.79.13-1.2v-5.36c0-.8-.39-1.6-1.01-2.09l-.91-.78c-.53-.45-1.24-.72-2-.76h-9.57c-.76.05-1.47.33-1.98.8l-.92.78c-.64.52-1.01,1.26-1.01,2.05v1.73h3.63v-.91c0-.19,0-.42.05-.63.01-.11.09-.18.16-.24.03-.03.08-.06.13-.11.24-.2.41-.29.52-.29.2-.05.49-.05.73-.05h6.86c.23,0,.52,0,.77.05l.08.03c.06.04.12.07.17.11.06.04.12.07.19.12.26.21.31.26.31.26l.06.11c.05.21.05.45.05.65v3.36c0,.33,0,.71-.1,1.06l-.02.05c-.15.25-.3.45-.49.63l-12.68,11.5c-.39.32-.61.57-.66.72-.08.33-.12.68-.12,1.02v4.27Zm4.5-23.21v.05s0-.03,0-.05Z"/>
        </g>
        <g>
          <polygon class="cls-16" points="71.86 6.22 71.86 27.44 58.28 6.31 58.19 6.22 54.6 6.22 54.6 33.7 58.32 33.7 58.32 12.76 71.95 33.7 75.54 33.7 75.59 33.7 75.59 6.22 71.86 6.22"/>
          <path class="cls-14" d="m75.59,33.93h-3.63l-.19-.1-13.21-20.3v20.18l-.23.23h-3.72l-.23-.23V6.22l.23-.23h3.59l.16.07.12.13,13.16,20.47V6.22l.23-.23h3.72l.23.23v27.48l-.23.23Zm-3.51-.45h3.28V6.45h-3.27v20.99l-.42.12-13.58-21.11h-3.27v27.03h3.27V12.76l.42-.12,13.56,20.84Z"/>
        </g>
      </g>
      <g>
        <path class="cls-2" d="m101.11,8.68c.05.18.05.32.05.5v10.22h2.18v-10.72c0-.5-.23-1-.64-1.32l-.64-.5c-.36-.32-.82-.5-1.27-.55h-4.13c-.23,0-.41,0-.64.05-.23.09-.45.18-.64.32l-.41.27c-.32.23-.5.45-.5.59h-.09c0-.18-.23-.41-.55-.73-.36-.32-.82-.5-1.27-.55h-3.91c-.23,0-.41,0-.64.05-.23.09-.45.18-.64.32-.41.23-.59.41-.59.64h-.09c-.05-.27-.18-.5-.41-.64-.14-.14-.32-.23-.5-.32-.23-.05-.41-.05-.64-.05h-.91v1.27c0,.18,0,.32.05.5.09.14.18.23.27.32s.18.18.27.32c.05.18.05.32.05.5v10.13h2.18v-9.9c0-.18,0-.36.09-.55.14-.18.32-.32.55-.41.18-.14.41-.23.64-.32.23-.05.41-.05.64-.05h2.63c.18,0,.41,0,.59.05.14.05.27.14.36.23s.18.18.27.32c.05.18.05.32.05.5v10.13h2.18v-10.18c.05-.23.23-.45.64-.68.18-.14.41-.23.64-.32.23-.05.41-.05.64-.05h2.91c.18,0,.41,0,.59.05.14.05.27.14.36.23.09.09.18.18.27.32Z"/>
        <path class="cls-7" d="m116.97,17.49c-.23.05-.41.05-.64.05h-5.09c-.18,0-.41,0-.59-.05-.14-.05-.27-.14-.36-.23s-.18-.18-.27-.32c-.05-.18-.05-.32-.05-.5v-2.45h8.95v-5.36c0-.5-.23-1-.64-1.32l-.64-.55c-.36-.27-.82-.45-1.27-.5h-6.09c-.45,0-.91.18-1.27.5l-.64.55c-.41.32-.64.82-.64,1.32v8.31c0,.5.23,1,.64,1.32l.64.55c.36.32.82.5,1.27.55h7c.23,0,.41,0,.64-.05.23-.14.45-.27.64-.45l.64-.55-1.59-1.32c-.32.27-.55.41-.64.5Zm-6.95-8.81c.09-.14.18-.23.27-.32.09-.09.23-.18.36-.23.18-.05.41-.05.59-.05h4.18c.18,0,.41,0,.59.05.14.05.27.14.36.23s.18.18.27.32c.05.18.05.32.05.5v3.09h-6.72v-3.09c0-.18,0-.32.05-.5Z"/>
        <path class="cls-8" d="m134.96,17.26c-.09-.09-.18-.18-.27-.32-.05-.18-.05-.32-.05-.5V0h-2.18v7.54h-.09c0-.09-.23-.36-.64-.77-.36-.32-.82-.5-1.27-.55h-4.59c-.5,0-.95.23-1.27.55l-.64.55c-.41.32-.64.82-.64,1.32v8.31c0,.5.23,1,.64,1.32l.64.55c.36.32.82.5,1.27.55h5c.27,0,.5-.05.64-.05.23-.09.45-.18.64-.32.41-.23.59-.41.59-.64h.09c.05.27.18.5.41.64.14.14.32.23.5.32.23.05.41.05.64.05h.91v-1.27c0-.18,0-.32-.05-.5-.09-.14-.18-.23-.27-.32Zm-2.5-1.04c0,.18,0,.36-.09.55-.14.18-.32.32-.55.41-.32.18-.55.27-.64.32-.23.05-.41.05-.64.05h-3.72c-.18,0-.41,0-.59-.05-.14-.05-.27-.14-.36-.23-.09-.09-.18-.18-.27-.32-.05-.18-.05-.32-.05-.5v-7.27c0-.18,0-.32.05-.5.09-.14.18-.23.27-.32s.23-.18.36-.23c.18-.05.41-.05.59-.05h3.72c.45,0,.91.23,1.27.55.36.23.59.64.64,1.04v6.54h0Z"/>
        <rect class="cls-10" x="139.82" y="6.27" width="2.18" height="13.08"/>
        <path class="cls-6" d="m139.59,3.04c.05.14.14.23.23.32.14.09.23.18.32.18.23.05.5.05.73.05h.14c.32.05.68-.05.95-.23.09-.09.18-.18.23-.32.05-.23.05-.41.05-.64v-.23c0-.32,0-.55-.09-.64-.05-.14-.14-.23-.23-.32-.32-.18-.64-.27-1-.23h-.09c-.41,0-.64.05-.73.05s-.18.09-.27.18-.18.18-.23.32c-.05.23-.05.41-.05.64v.23c0,.23,0,.41.05.64Z"/>
        <path class="cls-4" d="m158.26,18.03c0-.18,0-.32-.05-.5-.09-.14-.18-.23-.27-.32s-.18-.18-.27-.32c-.05-.18-.05-.32-.05-.5v-7.81c0-.5-.23-1-.64-1.32l-.64-.55c-.36-.32-.82-.5-1.27-.55h-6.13c-.23,0-.41,0-.64.05-.23.14-.45.27-.64.45l-.64.55,1.59,1.32c.18-.18.41-.32.64-.45.23-.05.41-.05.64-.05h4.22c.18,0,.41,0,.59.05.14.05.27.14.36.23.09.09.18.18.27.32.05.18.05.32.05.5v3.09h-.09c0-.23-.14-.41-.32-.55-.09-.09-.18-.18-.32-.23-.23-.05-.41-.05-.64-.05h-4.68c-.45,0-.91.18-1.27.5l-.64.55c-.41.32-.64.82-.64,1.32v3.13c0,.5.23,1,.64,1.32l.64.55c.36.32.82.5,1.27.55h4.45c.23,0,.41,0,.64-.05.23-.09.45-.18.64-.32.41-.23.59-.41.59-.64h.09c0,.18.14.41.45.64.14.14.32.23.5.32.23.05.41.05.64.05h.91v-1.27h0Zm-2.91-3.59v1.77c0,.18,0,.36-.09.55-.14.18-.32.32-.55.41-.32.18-.55.27-.64.32-.23.05-.41.05-.64.05h-3.18c-.18,0-.41,0-.59-.05-.14-.05-.27-.14-.36-.23-.09-.09-.18-.18-.27-.32-.05-.18-.05-.32-.05-.5v-2.04h0c0-.14,0-.32.05-.45.09-.14.18-.23.27-.32s.23-.18.36-.23c.18-.05.41-.05.59-.05h3.82c.18,0,.41,0,.59.05.14.05.27.14.36.23.09.09.18.18.27.32.05.18.05.32.05.5Z"/>
        <path class="cls-5" d="m174.29,2.09l-.64-.5c-.36-.32-.82-.5-1.27-.55h-6.54c-.5,0-.95.23-1.27.55l-.64.5c-.41.32-.64.82-.64,1.32v1.04h2.18v-.5c0-.18,0-.32.05-.5.09-.14.18-.23.27-.32s.23-.18.36-.23c.18-.05.41-.05.59-.05h4.63c.18,0,.41,0,.59.05.14.05.27.14.36.23.09.09.18.18.27.32.05.18.05.32.05.5v2.32c0,.27-.05.5-.09.77-.09.23-.23.41-.41.55l-8.68,7.9c-.14.14-.27.27-.41.45-.05.23-.05.41-.05.64v2.77h11.9v-1.82h-9.68v-.09c0-.23.05-.45.09-.68.14-.23.27-.41.45-.55l8.63-7.81c.18-.14.32-.32.41-.55.05-.27.09-.5.09-.77v-3.68c0-.5-.23-1-.64-1.32Z"/>
        <path class="cls-9" d="m184.51,8.09h3.36c.18,0,.41,0,.59.05.14.05.27.14.36.23.09.09.18.18.27.32.05.18.05.32.05.5v10.22h2.18v-10.72c0-.5-.23-1-.64-1.32l-.64-.55c-.36-.32-.82-.5-1.27-.55h-4.63c-.23,0-.41,0-.64.05-.23.09-.45.18-.64.32-.41.23-.59.41-.59.64h-.09c-.05-.27-.18-.5-.41-.64-.14-.14-.32-.23-.5-.32-.23-.05-.41-.05-.64-.05h-.86v1.27c0,.18,0,.32.05.5.09.14.18.23.27.32s.18.18.27.32c.05.18.05.32.05.5v10.13h2.18v-9.9c0-.18,0-.36.09-.55.14-.18.32-.32.55-.41.32-.18.55-.27.64-.32.23-.05.41-.05.64-.05Z"/>
        <path class="cls-11" d="m196.32,18.26l.64.55c.36.32.82.5,1.27.55h7c.23,0,.41,0,.64-.05.23-.14.45-.27.64-.45l.64-.55-1.59-1.32c-.18.18-.41.36-.64.5-.23.05-.41.05-.64.05h-5.09c-.18,0-.41,0-.59-.05-.14-.05-.27-.14-.36-.23-.09-.09-.18-.18-.27-.32-.05-.18-.05-.32-.05-.5v-2.45h8.95v-5.36c0-.5-.23-1-.64-1.32l-.64-.55c-.36-.27-.82-.45-1.27-.5h-6.09c-.45,0-.91.18-1.27.5l-.64.55c-.41.32-.64.82-.64,1.32v8.31c0,.5.23,1,.64,1.32Zm1.64-9.58c.09-.14.18-.23.27-.32s.23-.18.36-.23c.18-.05.41-.05.59-.05h4.22c.18,0,.41,0,.59.05.14.05.27.14.36.23.09.09.18.18.27.32.05.18.05.32.05.5v3.09h-6.77v-3.09c0-.18,0-.32.05-.5Z"/>
        <path class="cls-1" d="m218.35,17.94c-.09-.18-.23-.32-.41-.41h-2.36c-.18,0-.41,0-.59-.05-.14-.05-.27-.14-.36-.23-.09-.09-.18-.18-.27-.32-.05-.18-.05-.32-.05-.5v-8.31h3.82v-.68c0-.23,0-.5-.05-.73-.09-.18-.23-.32-.41-.41h-3.36v-3.68h-2.23v3.63h-1.73v.68c0,.23,0,.5.05.73.09.18.23.32.41.41h1.27v8.86c0,.5.23,1,.64,1.32l.64.55c.36.32.82.5,1.27.55h3.77v-.68c0-.23,0-.5-.05-.73Z"/>
      </g>
      <path class="cls-17" d="m85.49,25.17h-.36s-.09.05-.14.09c-.09.05-.14.09-.14.14v.64s.05.09.09.14c.05.05.09.09.14.09h.36c.14,0,.32,0,.45-.09.09-.05.14-.09.14-.14v-.64s-.05-.09-.09-.14c-.14-.09-.32-.09-.45-.09Z"/>
      <rect class="cls-17" x="84.9" y="27.57" width="1" height="6.04"/>
      <path class="cls-17" d="m92.85,27.75c-.18-.14-.36-.23-.59-.23h-2.13c-.09,0-.23,0-.32.05s-.23.14-.32.18c-.18.14-.27.23-.27.32h-.05c0-.14-.09-.23-.18-.32-.09-.05-.18-.14-.23-.14-.09-.05-.23-.05-.32-.05h-.41v.82s.05.09.14.14.14.09.14.14v4.95h1v-4.59c0-.09,0-.18.05-.23.09-.05.18-.14.27-.18.09-.05.23-.09.32-.14s.23-.05.32-.05h1.82s.09.05.18.09c.09.05.14.09.14.14v4.91h1v-5c0-.23-.09-.45-.27-.59l-.27-.23Z"/>
      <path class="cls-17" d="m98.53,32.71h-1.36s-.09-.05-.18-.09-.14-.09-.14-.14v-4.09h1.77v-.32c0-.14,0-.23-.05-.36,0-.05-.09-.09-.18-.18h-1.54v-1.64h-1v1.68h-.82v.32c0,.14,0,.23.05.36,0,.05.09.09.18.18h.59v4.13c0,.23.09.45.27.59l.27.23c.18.14.36.23.59.23h1.77v-.36c0-.14,0-.23-.05-.36,0-.05-.09-.09-.18-.18Z"/>
      <path class="cls-17" d="m104.93,32.71c-.09.05-.23.05-.32.05h-2.63s-.09-.05-.18-.09-.14-.09-.14-.14v-1.36h4.13v-2.5c0-.23-.09-.45-.27-.59l-.32-.23c-.18-.14-.36-.23-.59-.23h-2.82c-.23,0-.45.09-.59.23l-.27.23c-.18.14-.27.36-.27.59v3.91c0,.23.09.45.27.59l.27.23c.18.14.36.23.59.23h3.23c.09,0,.23,0,.32-.05.14-.05.23-.14.32-.23l.27-.23-.73-.59c-.14.14-.23.23-.27.18Zm-3.27-4.04s.05-.09.14-.14.14-.09.18-.09h2.5s.09.05.18.09c.09.05.14.09.14.14v1.68h-3.13v-1.68Z"/>
      <path class="cls-17" d="m111.11,27.53h-1.14c-.09,0-.23,0-.32.05s-.23.14-.32.18c-.18.14-.27.23-.27.32h-.05c0-.14-.09-.23-.18-.32-.09-.05-.18-.14-.23-.14-.09-.05-.23-.05-.32-.05h-.41v.82s.05.09.14.14.14.09.14.14v4.95h1v-4.68c0-.09,0-.18.05-.23.09-.05.18-.14.27-.18.09-.05.23-.09.32-.14s.23-.05.32-.05h.82s.09.05.18.09l.14.14.73-.59-.27-.23c-.18-.14-.36-.23-.59-.23Z"/>
      <path class="cls-17" d="m118.38,27.75c-.18-.14-.36-.23-.59-.23h-2.13c-.09,0-.23,0-.32.05s-.23.14-.32.18c-.18.14-.27.23-.27.32h-.05c0-.14-.09-.23-.18-.32-.09-.05-.18-.14-.23-.14-.09-.05-.23-.05-.32-.05h-.41v.82s.05.09.14.14.14.09.14.14v4.95h1v-4.59c0-.09,0-.18.05-.23.09-.05.18-.14.27-.18.09-.05.23-.09.32-.14s.23-.05.32-.05h1.82s.09.05.18.09c.09.05.14.09.14.14v4.91h1v-5c0-.23-.09-.45-.27-.59l-.27-.23Z"/>
      <path class="cls-17" d="m125.55,32.52c-.14.14-.23.23-.27.18-.09.05-.23.05-.32.05h-2.63s-.09-.05-.18-.09c-.09-.05-.14-.09-.14-.14v-1.36h4.13v-2.5c0-.23-.09-.45-.27-.59l-.32-.23c-.18-.14-.36-.23-.59-.23h-2.82c-.23,0-.45.09-.59.23l-.27.23c-.18.14-.27.36-.27.59v3.91c0,.23.09.45.27.59l.27.23c.18.14.36.23.59.23h3.23c.09,0,.23,0,.32-.05.14-.05.23-.14.32-.23l.27-.23-.73-.59h0Zm-3.54-3.86s.05-.09.14-.14c.09-.05.14-.09.18-.09h2.5s.09.05.18.09c.09.05.14.09.14.14v1.68h-3.13v-1.68h0Z"/>
      <path class="cls-17" d="m131.32,32.71h-1.36s-.09-.05-.18-.09c-.09-.05-.14-.09-.14-.14v-4.09h1.77v-.32c0-.14,0-.23-.05-.36,0-.05-.09-.09-.18-.18h-1.54v-1.64h-1v1.68h-.82v.32c0,.14,0,.23.05.36,0,.05.09.09.18.18h.59v4.13c0,.23.09.45.27.59l.27.23c.18.14.36.23.59.23h1.77v-.36c0-.14,0-.23-.05-.36,0-.05-.09-.09-.18-.18Z"/>
      <path class="cls-17" d="m142.09,27.8c-.18-.14-.36-.23-.59-.23h-2.32c-.09,0-.23,0-.32.05-.14,0-.23.05-.32.14-.18.14-.27.23-.27.32h-.05c0-.14-.09-.23-.18-.32-.09-.05-.18-.14-.23-.14-.09-.05-.23-.05-.32-.05h-.32v.82s.05.09.14.14c.09.05.14.09.14.14v8.13h1v-3.82h.05c.14.36.5.59.86.59h2.13c.23,0,.45-.09.59-.23l.27-.23c.18-.14.27-.36.27-.59v-3.91c0-.23-.09-.45-.27-.59l-.27-.23Zm-.5,4.77s-.05.09-.14.14c-.09.05-.14.09-.18.09h-2c-.23-.05-.45-.09-.68-.14-.14-.14-.27-.32-.27-.5v-3.04c0-.09,0-.18.05-.23.09-.05.18-.14.27-.18.09-.05.23-.09.32-.14s.23-.05.32-.05h2s.09.05.18.09c.09.05.14.09.14.14v3.82h0Z"/>
      <path class="cls-17" d="m147.9,27.53h-1.14c-.09,0-.23,0-.32.05s-.23.14-.32.18c-.18.14-.27.23-.27.32h-.05c0-.14-.09-.23-.18-.32-.09-.05-.18-.14-.23-.14-.09-.05-.23-.05-.32-.05h-.36v.82s.05.09.14.14c.09.05.14.09.14.14v4.95h1v-4.68c0-.09,0-.18.05-.23.09-.05.18-.14.27-.18.09-.05.23-.09.32-.14s.23-.05.32-.05h.77s.09.05.18.09l.14.14.73-.59-.27-.23c-.18-.14-.36-.23-.59-.23Z"/>
      <path class="cls-17" d="m155.03,27.8c-.18-.14-.36-.23-.59-.23h-2.91c-.23,0-.41.09-.59.23l-.27.23c-.18.14-.27.36-.27.59v3.91c0,.23.09.45.27.59l.27.23c.18.14.36.23.59.23h2.91c.23,0,.45-.09.59-.23l.27-.23c.18-.14.27-.36.27-.59v-3.91c0-.23-.09-.45-.27-.59l-.27-.23Zm-.41,4.5v.23s-.05.09-.14.14c-.09.05-.14.09-.18.09h-2.54s-.09-.05-.18-.09c-.09-.05-.14-.09-.14-.14v-3.82s.05-.09.14-.14c.09-.05.14-.09.18-.09h2.54s.09.05.18.09.14.09.14.14v3.59Z"/>
      <path class="cls-17" d="m160.85,24.94h-1.45c-.23,0-.45.09-.59.23l-.27.23c-.18.14-.27.36-.27.59v1.54h-.86v.32c0,.14,0,.23.05.36,0,.05.09.09.18.18h.64v5.22h1v-5.18h1.59v-.32c0-.14,0-.23-.05-.36,0-.05-.09-.09-.18-.18h-1.36v-1.5s.05-.09.14-.14c.09-.09.23-.14.36-.14h1.32v-.32c0-.14,0-.23-.05-.36,0-.05-.09-.09-.18-.18Z"/>
      <path class="cls-17" d="m167.21,32.52c-.14.14-.23.23-.27.18-.09.05-.23.05-.32.05h-2.63s-.09-.05-.18-.09c-.09-.05-.14-.09-.14-.14v-1.36h4.13v-2.5c0-.23-.09-.45-.27-.59l-.32-.23c-.18-.14-.36-.23-.59-.23h-2.82c-.23,0-.45.09-.59.23l-.27.23c-.18.14-.27.36-.27.59v3.91c0,.23.09.45.27.59l.27.23c.18.14.36.23.59.23h3.23c.09,0,.23,0,.32-.05.14-.05.23-.14.32-.23l.27-.23-.73-.59h0Zm-3.54-3.86s.05-.09.14-.14c.09-.05.14-.09.18-.09h2.5s.09.05.18.09c.09.05.14.09.14.14v1.68h-3.13v-1.68h0Z"/>
      <path class="cls-17" d="m174.34,27.8c-.18-.14-.36-.23-.59-.23h-2.59c-.23,0-.45.09-.59.23l-.27.23c-.18.14-.27.36-.27.59v1.23c0,.23.09.45.27.59l.27.23c.18.14.36.23.59.23h2.41s.09.05.18.09c.09.05.14.14.14.23v1.23s-.05.09-.14.14c-.09.05-.14.09-.18.09h-2.36s-.09-.05-.18-.09c-.09-.05-.14-.09-.14-.14v-.45h-1v.5c0,.23.09.45.27.59l.27.23c.18.14.36.23.59.23h2.73c.23,0,.45-.09.59-.23l.27-.23c.18-.14.27-.36.27-.59v-1.32c0-.23-.09-.45-.27-.59l-.27-.23c-.18-.14-.36-.23-.59-.23v-.09h-2.41s-.09-.05-.18-.09c-.09-.05-.14-.09-.14-.14v-1.14s.05-.09.14-.14c.09-.05.14-.09.18-.09h2.23s.09.05.18.09c.09.05.14.09.14.14v.45h1v-.5c0-.23-.09-.45-.27-.59l-.27-.23Z"/>
      <path class="cls-17" d="m181.47,27.8c-.18-.14-.36-.23-.59-.23h-2.59c-.23,0-.45.09-.59.23l-.27.23c-.18.14-.27.36-.27.59v1.23c0,.23.09.45.27.59l.27.23c.18.14.36.23.59.23h2.41s.09.05.18.09c.09.05.14.14.14.23v1.23s-.05.09-.14.14c-.09.05-.14.09-.18.09h-2.36s-.09-.05-.18-.09c-.09-.05-.14-.09-.14-.14v-.45h-1v.5c0,.23.09.45.27.59l.27.23c.18.14.36.23.59.23h2.68c.23,0,.45-.09.59-.23l.27-.23c.18-.14.27-.36.27-.59v-1.32c0-.23-.09-.45-.27-.59l-.27-.23c-.18-.14-.36-.23-.59-.23v-.09h-2.36s-.09-.05-.18-.09c-.09-.05-.14-.09-.14-.14v-1.14s.05-.09.14-.14c.09-.05.14-.09.18-.09h2.23s.09.05.18.09c.09.05.14.09.14.14v.45h1v-.5c0-.23-.09-.45-.27-.59l-.27-.23Z"/>
      <path class="cls-17" d="m184.7,25.17h-.36s-.09.05-.14.09c-.09.05-.14.09-.14.14v.64s.05.09.09.14.09.09.14.09h.36c.14,0,.32,0,.45-.09.09-.05.14-.09.14-.14v-.64s-.05-.09-.09-.14c-.14-.09-.32-.09-.45-.09Z"/>
      <rect class="cls-17" x="184.15" y="27.57" width="1" height="6.04"/>
      <path class="cls-17" d="m191.92,27.8c-.18-.14-.36-.23-.59-.23h-2.91c-.23,0-.45.09-.59.23l-.27.23c-.18.14-.27.36-.27.59v3.91c0,.23.09.45.27.59l.27.23c.18.14.36.23.59.23h2.91c.23,0,.45-.09.59-.23l.27-.23c.18-.14.27-.36.27-.59v-3.91c0-.23-.09-.45-.27-.59l-.27-.23Zm-.45,4.5v.23s-.05.09-.14.14c-.09.05-.14.09-.18.09h-2.54s-.09-.05-.18-.09c-.09-.05-.14-.09-.14-.14v-3.82s.05-.09.14-.14c.09-.05.14-.09.18-.09h2.54s.09.05.18.09.14.09.14.14v3.59Z"/>
      <path class="cls-17" d="m199.41,27.75c-.18-.14-.36-.23-.59-.23h-2.13c-.09,0-.23,0-.32.05s-.23.14-.32.18c-.18.14-.27.23-.27.32h-.05c0-.14-.09-.23-.18-.32-.09-.05-.18-.14-.23-.14-.09-.05-.23-.05-.32-.05h-.41v.82s.05.09.14.14c.09.05.14.09.14.14v4.95h1v-4.59c0-.09,0-.18.05-.23.09-.05.18-.14.27-.18.09-.05.23-.09.32-.14s.23-.05.32-.05h1.82s.09.05.18.09c.09.05.14.09.14.14v4.91h1v-5c0-.23-.09-.45-.27-.59l-.27-.23Z"/>
      <path class="cls-17" d="m207.18,32.75c-.09-.05-.14-.09-.14-.14v-3.86c0-.23-.09-.45-.27-.59l-.27-.23c-.18-.14-.36-.23-.59-.23h-2.86c-.09,0-.23,0-.32.05-.14.05-.23.14-.32.23l-.27.23.73.59c.18-.14.27-.23.32-.23.09-.05.23-.05.32-.05h2.23s.09.05.18.09c.09.05.14.09.14.14v1.68h-.05c0-.09-.05-.18-.14-.23-.05-.05-.09-.09-.14-.09h-2.45c-.23,0-.45.09-.59.23l-.27.23c-.18.14-.27.36-.27.59v1.45c0,.23.09.45.27.59l.27.23c.18.14.36.23.59.23h2.04c.09,0,.23,0,.32-.05.14,0,.23-.05.32-.14.18-.14.27-.23.27-.32h.05c0,.09.09.18.09.27.09.05.18.14.23.14.09.05.23.05.32.05h.41v-.73s-.05-.09-.14-.14Zm-1-.59c0,.09,0,.18-.05.23-.09.05-.18.14-.27.18s-.23.09-.32.14c-.09.05-.23.05-.32.05h-1.77s-.09-.05-.18-.09c-.09-.05-.14-.09-.14-.14v-1.18h0v-.23s.05-.09.14-.14c.09-.05.14-.09.18-.09h2.41s.09.05.18.09.14.09.14.14v1.04h0Z"/>
      <path class="cls-17" d="m210.77,32.66c-.09-.09-.14-.14-.18-.18s-.05-.18-.05-.36v-7.45h-1.04v8.09c0,.14,0,.23.05.36.09.09.14.14.23.18l.27.18c.09.05.18.09.27.14.05.05.18.05.32.05h.36v-.45c0-.14,0-.23-.05-.36,0-.05-.09-.09-.18-.18Z"/>
      <path class="cls-17" d="m217.63,27.8c-.18-.14-.36-.23-.59-.23h-2.59c-.23,0-.45.09-.59.23l-.27.23c-.18.14-.27.36-.27.59v1.23c0,.23.09.45.27.59l.27.23c.18.14.36.23.59.23h2.41s.09.05.18.09c.09.05.14.14.14.23v1.23s-.05.09-.14.14c-.09.05-.14.09-.18.09h-2.36s-.09-.05-.18-.09c-.09-.05-.14-.09-.14-.14v-.45h-1v.5c0,.23.09.45.27.59l.27.23c.18.14.36.23.59.23h2.68c.23,0,.45-.09.59-.23l.27-.23c.18-.14.27-.36.27-.59v-1.32c0-.23-.09-.45-.27-.59l-.27-.23c-.18-.14-.36-.23-.59-.23v-.09h-2.36s-.09-.05-.18-.09c-.09-.05-.14-.09-.14-.14v-1.14s.05-.09.14-.14c.09-.05.14-.09.18-.09h2.23s.09.05.18.09c.09.05.14.09.14.14v.45h1v-.5c0-.23-.09-.45-.27-.59l-.27-.23Z"/>
    </g>
  </g>
</svg>