<?xml version="1.0" encoding="UTF-8"?>
<svg id="Laag_1" xmlns="http://www.w3.org/2000/svg" version="1.1" viewBox="0 0 800 400">
  <!-- Generator: Adobe Illustrator 29.3.1, SVG Export Plug-In . SVG Version: 2.1.0 Build 151)  -->
  <defs>
    <style>
      .st0 {
        fill: #fff;
      }
    </style>
  </defs>
  <path class="st0" d="M330.7,400v-238.9h168.2v58h-101.8v33.1h82.5v56.3h-82.5v33.4h104.3v58h-170.7Z"/>
  <path class="st0" d="M565.9,400v-238.9h69.9l97.9,131.4v-131.4h66.3v238.9h-66.3l-101.5-136.2v136.2h-66.3Z"/>
  <g>
    <path class="st0" d="M36,125.5V31.9H0V1.9h105.4v30h-35.8v93.5h-33.6Z"/>
    <path class="st0" d="M181.2,127.6c-13.3,0-25.1-2.7-35.3-8.2-10.2-5.5-18.3-13-24.1-22.6-5.8-9.6-8.7-20.6-8.7-32.9s2.9-23.5,8.7-33.1c5.8-9.6,13.8-17.1,24-22.6C155.9,2.7,167.6,0,180.8,0s25.1,2.7,35.3,8.2c10.2,5.5,18.2,13,24,22.6,5.8,9.6,8.7,20.6,8.7,33.1s-2.9,23.3-8.6,32.9c-5.8,9.6-13.7,17.1-23.9,22.6-10.2,5.5-21.9,8.2-35.1,8.2ZM181.2,97.6c6.5,0,12.3-1.4,17.3-4.3,5-2.9,8.8-6.9,11.6-11.9,2.8-5.1,4.2-10.9,4.2-17.5s-1.4-12.4-4.3-17.6c-2.8-5.1-6.8-9.1-11.8-12-5-2.9-10.8-4.3-17.4-4.3s-12.1,1.4-17.2,4.3c-5,2.9-9,6.9-11.8,12-2.8,5.1-4.3,11-4.3,17.6s1.5,12.4,4.4,17.5c2.9,5.1,6.9,9,11.9,11.9,5,2.9,10.8,4.3,17.4,4.3Z"/>
    <path class="st0" d="M264.2,125.5V1.9h52.7c9.6,0,18.1,1.8,25.4,5.5,7.4,3.7,13.2,8.7,17.4,15.2,4.2,6.5,6.3,13.9,6.3,22.4s-2.1,16-6.3,22.5c-4.2,6.5-10,11.6-17.4,15.4-7.4,3.7-15.9,5.6-25.4,5.6h-19.1v37.1h-33.6ZM297.9,58.4h18.2c4.6,0,8.3-1.2,11.2-3.7,2.8-2.5,4.3-5.7,4.3-9.7s-1.4-7.1-4.3-9.5c-2.8-2.5-6.6-3.7-11.2-3.7h-18.2v26.6Z"/>
    <path class="st0" d="M447.8,125.5V31.9h-36V1.9h105.4v30h-35.8v93.5h-33.6Z"/>
    <path class="st0" d="M531.2,125.5V1.9h33.6v123.5h-33.6Z"/>
    <path class="st0" d="M586.6,125.5V1.9h85.2v30h-51.6v17.1h41.8v29.1h-41.8v17.3h52.9v30h-86.5Z"/>
    <path class="st0" d="M800,125.5l-28-44.9c7-3.6,12.6-8.4,16.6-14.6,4.2-6.4,6.3-13.7,6.3-22s-2.1-15.5-6.3-21.8c-4.2-6.3-10-11.2-17.4-14.8-7.4-3.6-15.9-5.4-25.4-5.4h-52.7v123.5h33.6v-39.2h11.8l22.9,39.2h38.5ZM726.8,31.8h17.3c4.6,0,8.3,1.1,11.2,3.4,2.8,2.3,4.3,5.2,4.3,8.7s-.7,4.5-2,6.4c-1.3,1.9-3.2,3.4-5.5,4.4-2.3,1.1-5,1.6-8,1.6h-17.3v-24.5Z"/>
  </g>
  <g>
    <polyline class="st0" points="0 390.9 0 392.8 65.4 313.9 100.5 342.9 147.7 283.3 189.9 323.7 212.4 308.2 267.9 388.8 267.9 161.1 194.5 161.1 134 246.4 73.4 161.1 0 161.1 0 390.9"/>
    <polygon class="st0" points="200 342.6 132.5 391.6 158.7 339.5 144.3 303.8 103.5 355.2 82.7 385.7 60.5 365.6 75.4 360.4 79.6 359 70.8 344.5 63.3 332.3 7.6 400 66.3 400 184 400 200 342.6"/>
  </g>
</svg>