<?xml version="1.0" encoding="UTF-8"?>
<svg width="512" height="512" viewBox="0 0 512 512" fill="none" xmlns="http://www.w3.org/2000/svg">
  <path d="M256 0C114.6 0 0 114.6 0 256C0 397.4 114.6 512 256 512C397.4 512 512 397.4 512 256C512 114.6 397.4 0 256 0ZM256 464C141.1 464 48 370.9 48 256C48 141.1 141.1 48 256 48C370.9 48 464 141.1 464 256C464 370.9 370.9 464 256 464Z" fill="#39B54A"/>
  <path d="M256 96C167.6 96 96 167.6 96 256C96 344.4 167.6 416 256 416C344.4 416 416 344.4 416 256C416 167.6 344.4 96 256 96ZM256 368C185.3 368 128 310.7 128 240C128 169.3 185.3 112 256 112C326.7 112 384 169.3 384 240C384 310.7 326.7 368 256 368Z" fill="#39B54A"/>
  <path d="M256 144C203.1 144 160 187.1 160 240C160 292.9 203.1 336 256 336C308.9 336 352 292.9 352 240C352 187.1 308.9 144 256 144ZM256 288C225.1 288 200 262.9 200 232C200 201.1 225.1 176 256 176C286.9 176 312 201.1 312 232C312 262.9 286.9 288 256 288Z" fill="#39B54A"/>
</svg> 